{"title":"WWE.WrestleMania.31.Kickoff.2015.03.29.HDTV.XviD-FICEK9","uid":11825070,"size":1097614601,"categoryP":"video","categoryS":"tv_shows","magnet":"?xt=urn:btih:15ebaba5e1cf30c796bd7deba916a43828557b80&amp;dn=WWE.WrestleMania.31.Kickoff.2015.03.29.HDTV.XviD-FICEK9&amp;tr=udp%3A%2F%2Ftracker.openbittorrent.com%3A80&amp;tr=udp%3A%2F%2Fopen.demonii.com%3A1337&amp;tr=udp%3A%2F%2Ftracker.coppersurfer.tk%3A6969&amp;tr=udp%3A%2F%2Fexodus.desync.com%3A6969","seeders":1,"leechers":1,"uploader":"FICEK9","files":2,"time":1429452290,"description":"\n   General\n      Complete name :WWE.WrestleMania.31.Kickoff.2015.03.29.HDTV.XviD-FICEK9.avi\n      Format : AVI\n      Format/Info : Audio Video Interleave\n      Format profile : OpenDML\n      File size : 1.02 GiB\n      Duration : 1h 58mn\n      Overall bit rate mode : Variable\n      Overall bit rate : 1 230 Kbps\n      Writing application : MEncoder SVN-r33883(20110719-gcc4.5.2)\n      Writing library : MPlayer\n   Video #0\n      ID : 0\n      Format : MPEG-4 Visual\n      Format profile : Advanced Simple@L5\n      Format settings, BVOP : 2\n      Format settings, QPel : No\n      Format settings, GMC : No warppoints\n      Format settings, Matrix : Default (H.263)\n      Codec ID : XVID\n      Codec ID/Hint : XviD\n      Duration : 1h 58mn\n      Bit rate : 1 091 Kbps\n      Width : 624 pixels\n      Height : 352 pixels\n      Display aspect ratio : 16:9\n      Frame rate : 29.970 fps\n      Color space : YUV\n      Chroma subsampling : 4:2:0\n      Bit depth : 8 bits\n      Scan type : Progressive\n      Compression mode : Lossy\n      Bits/(Pixel*Frame) : 0.166\n      Stream size : 928 MiB (89%)\n      Writing library : XviD 1.2.1 (UTC 2008-12-04)\n   Audio #1\n      ID : 1\n      Format : MPEG Audio\n      Format version : Version 1\n      Format profile : Layer 3\n      Mode : Joint stereo\n      Codec ID : 55\n      Codec ID/Hint : MP3\n      Duration : 1h 58mn\n      Bit rate mode : Variable\n      Bit rate : 122 Kbps\n      Channel(s) : 2 channels\n      Sampling rate : 44.1 KHz\n      Compression mode : Lossy\n      Stream size : 103 MiB (10%)\n      Alignment : Aligned on interleaves\n      Interleave, duration : 26 ms (0.78 video frame)\n      Interleave, preload duration : 535 ms","torrent":{"xt":"urn:btih:15ebaba5e1cf30c796bd7deba916a43828557b80","amp;dn":"WWE.WrestleMania.31.Kickoff.2015.03.29.HDTV.XviD-FICEK9","amp;tr":["udp%3A%2F%2Ftracker.openbittorrent.com%3A80","udp%3A%2F%2Fopen.demonii.com%3A1337","udp%3A%2F%2Ftracker.coppersurfer.tk%3A6969","udp%3A%2F%2Fexodus.desync.com%3A6969"],"infoHash":"15ebaba5e1cf30c796bd7deba916a43828557b80","infoHashBuffer":{"type":"Buffer","data":[21,235,171,165,225,207,48,199,150,189,125,235,169,22,164,56,40,85,123,128]},"announce":[],"urlList":[]}}